<svg height="500" width="500" viewBox="0 0 500 500" xmlns="http://www.w3.org/2000/svg">
	<style>
    .number { font: bold 40px sans-serif; fill: white; }
    .vertspeed { font: bold 20px sans-serif; fill: white; }
    .ftpermin { font: bold 15px sans-serif; fill: white; }
    .updn { font: bold 18px sans-serif; fill: white; }
    .needle { fill: white; }
    .needlecenter { fill: #383838; }
  </style>


  <!-- Background -->
  <circle cx="250" cy="250" r="240" stroke-width="3" fill="black" />

  <defs>
    <line id="tick" x1="11" y1="250" x2="40" y2="250" stroke-linecap="round" stroke-width="2" stroke="white" />

    <line id="lgtick" x1="11" y1="250" x2="60" y2="250" stroke-linecap="round" stroke-width="3" stroke="white" />

    <polygon id="updnarrow" points="243,250 257,250 250,200" />

    <linearGradient id="frameouter" x1="0%" y1="0%" x2="0%" y2="100%">
      <stop offset="0%"   stop-color="grey"/>
      <stop offset="100%" stop-color="black"/>
    </linearGradient>

    <linearGradient id="frameinner" x1="0%" y1="0%" x2="0%" y2="100%">
      <stop offset="0%"   stop-color="black"/>
      <stop offset="100%" stop-color="grey"/>
    </linearGradient>
  </defs>

  <g id="ticks">
    <!-- 0 Tick -->
    <use class="tick" href="#lgtick"></use>

    <!-- 1-4 -->
    <use class="tick" href="#tick" transform="rotate(7 250 250)" />
    <use class="tick" href="#tick" transform="rotate(14 250 250)" />
    <use class="tick" href="#tick" transform="rotate(21 250 250)" />
    <use class="tick" href="#tick" transform="rotate(28 250 250)" />

    <!-- 5  -->
    <use class="tick" href="#lgtick" transform="rotate(35 250 250)" />

    <!-- 6-9 -->
    <use class="tick" href="#tick" transform="rotate(42 250 250)" />
    <use class="tick" href="#tick" transform="rotate(49 250 250)" />
    <use class="tick" href="#tick" transform="rotate(56 250 250)" />
    <use class="tick" href="#tick" transform="rotate(63 250 250)" />

    <!-- 10 -->
    <use class="tick" href="#lgtick" transform="rotate(70 250 250)" />

    <!-- -1 to -4 -->
    <use class="tick" href="#tick" transform="rotate(-7 250 250)" />
    <use class="tick" href="#tick" transform="rotate(-14 250 250)" />
    <use class="tick" href="#tick" transform="rotate(-21 250 250)" />
    <use class="tick" href="#tick" transform="rotate(-28 250 250)" />

    <!-- -5 -->
    <use class="tick" href="#lgtick" transform="rotate(-35 250 250)" />

    <!-- -6 to -9 -->
    <use class="tick" href="#tick" transform="rotate(-42 250 250)" />
    <use class="tick" href="#tick" transform="rotate(-49 250 250)" />
    <use class="tick" href="#tick" transform="rotate(-56 250 250)" />
    <use class="tick" href="#tick" transform="rotate(-63 250 250)" />

    <!-- -10 -->
    <use class="tick" href="#lgtick" transform="rotate(-70 250 250)" />

    <!-- -15, 15, and two ticks for 20 -->
    <use class="tick" href="#lgtick" transform="rotate(121 250 250)" />
    <use class="tick" href="#lgtick" transform="rotate(173 250 250)" />
    <use class="tick" href="#lgtick" transform="rotate(187 250 250)" />
    <use class="tick" href="#lgtick" transform="rotate(239 250 250)" />
  </g>


  <!-- Up and Down Arrows -->
  <use href="#updnarrow" style="fill:green" transform="translate(-145 -20) rotate(15, 250, 250)" />
  <use href="#updnarrow" style="fill:red" transform="translate(-145, 20) rotate(165, 250, 250)" />


  <!-- Dial Numbers -->
  <text x="70" y="264" class="number">0</text>
  <text x="105" y="170" class="number">5</text>
  <text x="105" y="370" class="number">5</text>
  <text x="165" y="110" class="number">10</text>
  <text x="165" y="410" class="number">10</text>
  <text x="310" y="130" class="number">15</text>
  <text x="310" y="400" class="number">15</text>
  <text x="385" y="264" class="number">20</text>


  <!-- Text -->
  <g id="verticalspeed" transform="translate(280, 185)">
    <text class="vertspeed">VERTICAL</text>
      <text class="vertspeed" x="-2" y="24">SPEED</text>
  </g>
  
  <g id="verticalspeed" transform="translate(280, 315)">
    <text class="ftpermin">500 FEET</text>
      <text class="ftpermin" y="22">PER MIN</text>
  </g>

  <text class="updn" x="125" y="200">UP</text>
  <text class="updn" x="125" y="310">DN</text>


  <!-- Needle -->
  <g transform="rotate(__rotate__, 250, 250)">
    <!-- Needle -->
    <polygon points="30,250 50,255 210,255 210,245 50,245" class="needle" />

    <!-- Center -->
    <polygon points="210,255 210,245 290,245 290,255" class="needlecenter" />
    <circle cx="250" cy="250" r="10" class="needlecenter" />
    <circle cx="250" cy="250" r="5" fill="black" />
    <circle cx="290" cy="250" r="10" class="needlecenter" />
  </g>


  <!-- Frame -->
  <circle cx="250" cy="250" r="240" stroke-width="13" stroke="url(#frameouter)" fill="none" />
  <circle cx="250" cy="250" r="232" stroke-width="10" stroke="url(#frameinner)" fill="none" />
  <circle cx="250" cy="250" r="227" stroke-width="1" stroke="#383838" fill="none" />
</svg>
